<?xml version="1.0" ?><svg height="48px" version="1.1" viewBox="0 0 48 48" width="48px" xmlns="http://www.w3.org/2000/svg" xmlns:sketch="http://www.bohemiancoding.com/sketch/ns" xmlns:xlink="http://www.w3.org/1999/xlink"><title/><defs/><g fill="none" fill-rule="evenodd" id="shadow" stroke="none" stroke-width="1"><g id="linkedin"><path d="M24,48 C37.2548347,48 48,37.2548347 48,24 C48,10.7451653 37.2548347,0 24,0 C10.7451653,0 0,10.7451653 0,24 C0,37.2548347 10.7451653,48 24,48 Z" fill="#346DA6" id="Linkedin"/><path d="M0.161727821,26.8011643 C1.47690406,38.1150728 10.6606301,47.0285399 22.0969983,47.925658 L35.1401742,34.882482 L33.8884674,27.8420349 L31.2010254,22.1290207 L24.0298203,23.2835988 L20.3593323,20.3594663 L15.9597488,25.4853284 L13.1972229,20.3594663 L16.8512026,16.912067 L13.421326,13.5415662 L0.161727821,26.8011643 Z" fill="#000000" fill-opacity="0.400000006"/><path d="M17.5064603,35.058521 L17.5064603,20.4194712 L12.981896,20.4194712 L12.981896,35.058521 L17.5064603,35.058521 Z M17.5064603,15.2305716 C17.4795106,13.920528 16.6064125,12.9230769 15.1880435,12.9230769 C13.7693053,12.9230769 12.8423077,13.920528 12.8423077,15.2305716 C12.8423077,16.5121619 13.7423555,17.5384615 15.1337748,17.5384615 L15.1607246,17.5384615 C16.6064125,17.5384615 17.5064603,16.5121619 17.5064603,15.2305716 Z M24.8880335,35.0585214 L24.8880335,26.7178983 C24.8880335,26.2715212 24.9202964,25.825144 25.0515578,25.5069346 C25.4104273,24.6146223 26.2271649,23.690931 27.5985592,23.690931 C29.3951167,23.690931 30.5218224,24.7105269 30.5218224,26.7178982 L30.5218224,35.0585213 L35.0769231,35.0585214 L35.0769231,26.4947097 C35.0769231,21.9071902 32.6280362,19.7725352 29.3615279,19.7725352 C26.6832651,19.7725352 25.507658,21.2698874 24.8548866,22.2890416 L24.8875914,20.3311298 L20.3403696,20.3311298 C20.4057793,21.7325772 20.3403696,35.0585213 20.3403696,35.0585213 L24.8880335,35.0585214 Z" fill="#FFFFFF"/></g></g></svg>