<?xml version="1.0" ?><!DOCTYPE svg  PUBLIC '-//W3C//DTD SVG 1.1//EN'  'http://www.w3.org/Graphics/SVG/1.1/DTD/svg11.dtd'><svg enable-background="new 0 0 512 512" height="512px" id="Layer_1" version="1.1" viewBox="0 0 512 512" width="512px" xml:space="preserve" xmlns="http://www.w3.org/2000/svg" xmlns:xlink="http://www.w3.org/1999/xlink"><path d="M492.168,442.957c0,34.171-27.703,61.872-61.873,61.872H80.551c-34.171,0-61.874-27.701-61.874-61.872  V93.212c0-34.171,27.703-61.873,61.874-61.873h349.744c34.17,0,61.873,27.701,61.873,61.873V442.957z" fill="#0A5772"/><path d="M492.168,418.213c0,34.172-27.703,61.873-61.873,61.873H80.551c-34.171,0-61.874-27.701-61.874-61.873  V68.468c0-34.171,27.703-61.872,61.874-61.872h349.744c34.17,0,61.873,27.701,61.873,61.872V418.213z" fill="#0083BE"/><path d="M492.168,418.213V340.83c-0.467-0.469-0.937-0.934-1.402-1.402c-3.83-3.867-7.629-7.794-11.563-11.557  c-3.842-3.865-7.722-7.691-11.557-11.563c-3.83-3.866-7.63-7.794-11.563-11.556c-3.842-3.865-7.723-7.691-11.557-11.564  c-3.831-3.866-7.631-7.793-11.563-11.556c-3.842-3.864-7.723-7.692-11.559-11.563c-3.83-3.867-7.629-7.793-11.562-11.557  c-3.843-3.864-7.722-7.691-11.558-11.563c-3.83-3.867-7.629-7.793-11.563-11.556c-7.637-7.681-15.199-15.47-22.998-22.986  c-14.146-13.632-35.146-18.147-54.197-15.113c-10.535,1.678-20.317,6.25-28.092,13.567l-10.525-10.504c0,0-0.015,0-0.332,0  c-5.186,0-10.801,0-15.985,0c-0.756,0-1.512,0-2.267,0c-0.326,0-0.34-0.117-0.612-0.387c-0.976-0.976-1.941-1.963-2.928-2.928  c-3.895-3.804-7.757-7.663-11.561-11.56c-15.225-15.596-31.014-30.642-46.239-46.239c-3.666-3.755-7.331-7.61-11.193-11.162  c-3.216-2.958-7.133-5.072-11.313-6.316c-8.464-2.518-18.321-1.946-26.282,1.972c-6.733,3.313-11.924,9.18-14.17,16.362  c-2.642,8.444-1.364,18.137,3.745,25.406c2.201,3.13,5.142,5.771,7.869,8.433c2.961,2.891,5.896,5.825,8.786,8.786  c5.805,5.948,11.81,11.701,17.633,17.632c-9.167,0-18.335,0-27.503,0c-0.494,0-8.604-0.014-8.604,0.014c0,0.988,0,1.976,0,2.963  c0,6.322,0,12.644,0,18.964c0,10.306,0,20.61,0,30.915c0,12.115,0,24.229,0,36.343c0,11.751,0,23.501,0,35.251  c0,9.213,0,18.426,0,27.639c0,4.5,0,9.001,0,13.502c0,0.123,0,0.247,0,0.369c0,0.029,0.015,0.044,0.029,0.059l-0.029,0.003  l113.707,113.708h186.632C464.465,480.086,492.168,452.385,492.168,418.213z" fill="#0064A2"/><g><rect fill="#FFFFFF" height="166.021" width="55.194" x="129.957" y="200.357"/><path d="M157.927,120.303c-18.884,0-31.222,12.415-31.222,28.687c0,15.93,11.963,28.687,30.491,28.687h0.357   c19.245,0,31.224-12.757,31.224-28.687C188.42,132.718,176.799,120.303,157.927,120.303z" fill="#FFFFFF"/><path d="M320.604,196.453c-29.277,0-42.391,16.101-49.734,27.41v-23.506H215.69c0.732,15.573,0,166.021,0,166.021   h55.179V273.66c0-4.963,0.357-9.924,1.82-13.471c3.982-9.911,13.068-20.178,28.313-20.178c19.959,0,27.955,15.23,27.955,37.539   v88.828h55.182v-95.206C384.139,220.176,356.912,196.453,320.604,196.453z" fill="#FFFFFF"/></g></svg>